<svg xmlns="http://www.w3.org/2000/svg" width="24" height="24" viewBox="0 0 24 24" fill="none">
  <path d="M20.067 8.478c.492.88.556 2.014.3 3.327-.74 3.806-3.276 5.12-6.514 5.12h-.5a.805.805 0 0 0-.794.68l-.04.22-.63 4.004-.01.08a.798.798 0 0 1-.79.679h-2.632a.486.486 0 0 1-.48-.558l.04-.19 1.067-6.762.01-.08a.799.799 0 0 1 .791-.679h.776c3.718 0 6.25-1.504 7.062-5.84.031-.161.063-.325.088-.491.793-2.438-.002-4.096-1.77-5.16-1.765-1.06-4.38-.98-7.28-.194l-8.29.039a.796.796 0 0 0-.775.847l1.58 10.054-.131.83-.417 2.653-.01.08a.799.799 0 0 1-.79.679H2.486a.486.486 0 0 1-.48-.558L4.99 3.586l.01-.08a.797.797 0 0 1 .79-.678h11.22c1.519-.1 2.91.201 4.062.852 1.17.66 1.997 1.639 2.503 2.902.157.39.277.8.363 1.226.127.63.19 1.308.19 2.034 0 .642-.064 1.333-.205 2.077-.95.506-.242 1.015-.444 1.524" fill="#009EE3"/>
</svg>